<?xml version="1.0" standalone="no"?>
<!DOCTYPE svg PUBLIC "-//W3C//DTD SVG 20010904//EN"
 "http://www.w3.org/TR/2001/REC-SVG-20010904/DTD/svg10.dtd">
<svg version="1.0" xmlns="http://www.w3.org/2000/svg"
 width="512.000000pt" height="512.000000pt" viewBox="0 0 512.000000 512.000000"
 preserveAspectRatio="xMidYMid meet">
<metadata>
Created by potrace 1.16, written by Peter Selinger 2001-2019
</metadata>
<g transform="translate(0.000000,512.000000) scale(0.100000,-0.100000)"
fill="#000000" stroke="none">
<path d="M3290 1810 c-35 -35 -25 -77 50 -229 84 -170 104 -233 98 -313 -6
-78 -28 -102 -98 -102 -77 0 -120 36 -207 174 -123 197 -200 266 -266 241 -43
-17 -61 -64 -60 -161 1 -47 6 -114 13 -147 13 -74 -1 -118 -48 -151 -71 -51
-193 -50 -227 2 -9 13 -22 65 -30 115 -24 145 -51 196 -111 207 -72 13 -143
-66 -224 -253 -122 -282 -159 -344 -239 -395 -37 -23 -56 -28 -105 -28 -71 0
-115 22 -146 72 -38 62 -17 156 64 297 107 186 157 302 181 417 19 92 14 132
-21 174 -56 66 -134 23 -230 -127 -108 -169 -281 -256 -395 -199 l-33 17 -146
-144 c-80 -79 -190 -183 -245 -232 -127 -111 -161 -148 -191 -210 -29 -60 -32
-148 -8 -219 23 -68 121 -169 220 -227 287 -170 825 -325 1296 -375 203 -21
743 -15 923 10 252 35 669 131 883 202 139 47 312 132 384 189 99 79 146 173
134 269 -12 105 -41 142 -321 421 -232 230 -360 375 -480 540 -19 25 -23 27
-44 15 -55 -29 -113 -2 -233 111 -66 62 -104 73 -138 39z"/>
</g>
</svg>
